<svg width="473" height="80" viewBox="0 0 473 80" fill="none" xmlns="http://www.w3.org/2000/svg">
<rect x="3" width="47" height="47" fill="#DEF5FF"/>
<rect x="74" width="47" height="47" fill="#FF3B30"/>
<rect x="146" width="47" height="47" fill="#CB89EA"/>
<rect x="216" width="47" height="47" fill="#A0DFFA"/>
<rect x="287" width="47" height="47" fill="#F9F9F9"/>
<rect x="353" width="47" height="47" fill="#9C9C9C"/>
<rect x="423" width="47" height="47" fill="#393939"/>
<path d="M4.17614 77L5.60795 68.2727H6.46023L5.02841 77H4.17614ZM0.204545 74.5795L0.340909 73.7273H6.85227L6.71591 74.5795H0.204545ZM1.10795 77L2.53977 68.2727H3.39205L1.96023 77H1.10795ZM0.715909 71.5455L0.852273 70.6932H7.36364L7.22727 71.5455H0.715909ZM11.3203 77H8.62713V68.2727H11.4396C12.2862 68.2727 13.0107 68.4474 13.6129 68.7969C14.2152 69.1435 14.6768 69.642 14.9979 70.2926C15.3189 70.9403 15.4794 71.7159 15.4794 72.6193C15.4794 73.5284 15.3175 74.3111 14.9936 74.9673C14.6697 75.6207 14.1982 76.1236 13.5788 76.4759C12.9595 76.8253 12.2067 77 11.3203 77ZM9.68395 76.0625H11.2521C11.9737 76.0625 12.5717 75.9233 13.0462 75.6449C13.5206 75.3665 13.8743 74.9702 14.1072 74.456C14.3402 73.9418 14.4567 73.3295 14.4567 72.6193C14.4567 71.9148 14.3416 71.3082 14.1115 70.7997C13.8814 70.2884 13.5376 69.8963 13.0803 69.6236C12.6229 69.348 12.0533 69.2102 11.3714 69.2102H9.68395V76.0625ZM17.2521 77V68.2727H22.5192V69.2102H18.3089V72.1591H22.2464V73.0966H18.3089V76.0625H22.5874V77H17.2521ZM24.424 77V68.2727H29.657V69.2102H25.4808V72.1591H29.2649V73.0966H25.4808V77H24.424ZM34.0408 77.1193C33.5408 77.1193 33.0906 77.0199 32.69 76.821C32.2894 76.6222 31.9684 76.3494 31.7269 76.0028C31.4854 75.6562 31.3533 75.2614 31.3306 74.8182H32.3533C32.3931 75.2131 32.5721 75.5398 32.8903 75.7983C33.2113 76.054 33.5948 76.1818 34.0408 76.1818C34.3988 76.1818 34.717 76.098 34.9954 75.9304C35.2766 75.7628 35.4968 75.5327 35.6559 75.2401C35.8178 74.9446 35.8988 74.6108 35.8988 74.2386C35.8988 73.858 35.815 73.5185 35.6474 73.2202C35.4826 72.919 35.2553 72.6818 34.9656 72.5085C34.6758 72.3352 34.3448 72.2472 33.9727 72.2443C33.7056 72.2415 33.4315 72.2827 33.1502 72.3679C32.869 72.4503 32.6374 72.5568 32.4556 72.6875L31.467 72.5682L31.9954 68.2727H36.5295V69.2102H32.8817L32.5749 71.7841H32.6261C32.805 71.642 33.0295 71.5241 33.2994 71.4304C33.5692 71.3366 33.8505 71.2898 34.1431 71.2898C34.6772 71.2898 35.1531 71.4176 35.5707 71.6733C35.9911 71.9261 36.3207 72.2727 36.5593 72.7131C36.8008 73.1534 36.9215 73.6562 36.9215 74.2216C36.9215 74.7784 36.7965 75.2756 36.5465 75.7131C36.2994 76.1477 35.9585 76.4915 35.5238 76.7443C35.0891 76.9943 34.5948 77.1193 34.0408 77.1193ZM38.7678 77V68.2727H44.0007V69.2102H39.8246V72.1591H43.6087V73.0966H39.8246V77H38.7678ZM45.8107 77V68.2727H51.0437V69.2102H46.8675V72.1591H50.6516V73.0966H46.8675V77H45.8107Z" fill="black"/>
<path d="M75.1761 77L76.608 68.2727H77.4602L76.0284 77H75.1761ZM71.2045 74.5795L71.3409 73.7273H77.8523L77.7159 74.5795H71.2045ZM72.108 77L73.5398 68.2727H74.392L72.9602 77H72.108ZM71.7159 71.5455L71.8523 70.6932H78.3636L78.2273 71.5455H71.7159ZM79.6271 77V68.2727H84.8601V69.2102H80.6839V72.1591H84.468V73.0966H80.6839V77H79.6271ZM86.6701 77V68.2727H91.9031V69.2102H87.7269V72.1591H91.511V73.0966H87.7269V77H86.6701ZM96.5085 77.1193C95.946 77.1193 95.4446 77.0227 95.0043 76.8295C94.5668 76.6364 94.2188 76.3679 93.9602 76.0241C93.7045 75.6776 93.5653 75.2756 93.5426 74.8182H94.6165C94.6392 75.0994 94.7358 75.3423 94.9062 75.5469C95.0767 75.7486 95.2997 75.9048 95.5753 76.0156C95.8509 76.1264 96.1563 76.1818 96.4915 76.1818C96.8665 76.1818 97.1989 76.1165 97.4886 75.9858C97.7784 75.8551 98.0057 75.6733 98.1705 75.4403C98.3352 75.2074 98.4176 74.9375 98.4176 74.6307C98.4176 74.3097 98.3381 74.027 98.179 73.7827C98.0199 73.5355 97.7869 73.3423 97.4801 73.2031C97.1733 73.0639 96.7983 72.9943 96.3551 72.9943H95.6562V72.0568H96.3551C96.7017 72.0568 97.0057 71.9943 97.267 71.8693C97.5313 71.7443 97.7372 71.5682 97.8849 71.3409C98.0355 71.1136 98.1108 70.8466 98.1108 70.5398C98.1108 70.2443 98.0455 69.9872 97.9148 69.7685C97.7841 69.5497 97.5994 69.3793 97.3608 69.2571C97.125 69.1349 96.8466 69.0739 96.5256 69.0739C96.2244 69.0739 95.9403 69.1293 95.6733 69.2401C95.4091 69.348 95.1932 69.5057 95.0256 69.7131C94.858 69.9176 94.767 70.1648 94.7528 70.4545H93.7301C93.7472 69.9972 93.8849 69.5966 94.1435 69.2528C94.402 68.9062 94.7401 68.6364 95.1577 68.4432C95.5781 68.25 96.0398 68.1534 96.5426 68.1534C97.0824 68.1534 97.5455 68.2628 97.9318 68.4815C98.3182 68.6974 98.6151 68.983 98.8224 69.3381C99.0298 69.6932 99.1335 70.0767 99.1335 70.4886C99.1335 70.9801 99.0043 71.3991 98.7457 71.7457C98.4901 72.0923 98.142 72.3324 97.7017 72.4659V72.5341C98.2528 72.625 98.6832 72.8594 98.9929 73.2372C99.3026 73.6122 99.4574 74.0767 99.4574 74.6307C99.4574 75.1051 99.3281 75.5312 99.0696 75.9091C98.8139 76.2841 98.4645 76.5795 98.0213 76.7955C97.5781 77.0114 97.0739 77.1193 96.5085 77.1193ZM101.354 77V68.2727H104.405C105.013 68.2727 105.514 68.3778 105.909 68.5881C106.304 68.7955 106.598 69.0753 106.791 69.4276C106.984 69.777 107.081 70.1648 107.081 70.5909C107.081 70.9659 107.014 71.2756 106.881 71.5199C106.75 71.7642 106.577 71.9574 106.361 72.0994C106.148 72.2415 105.916 72.3466 105.666 72.4148V72.5C105.933 72.517 106.202 72.6108 106.472 72.7812C106.741 72.9517 106.967 73.196 107.149 73.5142C107.331 73.8324 107.422 74.2216 107.422 74.6818C107.422 75.1193 107.322 75.5128 107.124 75.8622C106.925 76.2116 106.611 76.4886 106.182 76.6932C105.753 76.8977 105.195 77 104.507 77H101.354ZM102.411 76.0625H104.507C105.197 76.0625 105.688 75.929 105.977 75.6619C106.27 75.392 106.416 75.0653 106.416 74.6818C106.416 74.3864 106.341 74.1136 106.19 73.8636C106.04 73.6108 105.825 73.4091 105.547 73.2585C105.268 73.1051 104.939 73.0284 104.558 73.0284H102.411V76.0625ZM102.411 72.108H104.371C104.689 72.108 104.976 72.0455 105.232 71.9205C105.49 71.7955 105.695 71.6193 105.845 71.392C105.999 71.1648 106.075 70.8977 106.075 70.5909C106.075 70.2074 105.942 69.8821 105.675 69.6151C105.408 69.3452 104.984 69.2102 104.405 69.2102H102.411V72.108ZM111.954 77.1193C111.391 77.1193 110.89 77.0227 110.45 76.8295C110.012 76.6364 109.664 76.3679 109.406 76.0241C109.15 75.6776 109.011 75.2756 108.988 74.8182H110.062C110.085 75.0994 110.181 75.3423 110.352 75.5469C110.522 75.7486 110.745 75.9048 111.021 76.0156C111.296 76.1264 111.602 76.1818 111.937 76.1818C112.312 76.1818 112.644 76.1165 112.934 75.9858C113.224 75.8551 113.451 75.6733 113.616 75.4403C113.781 75.2074 113.863 74.9375 113.863 74.6307C113.863 74.3097 113.783 74.027 113.624 73.7827C113.465 73.5355 113.232 73.3423 112.925 73.2031C112.619 73.0639 112.244 72.9943 111.8 72.9943H111.102V72.0568H111.8C112.147 72.0568 112.451 71.9943 112.712 71.8693C112.977 71.7443 113.183 71.5682 113.33 71.3409C113.481 71.1136 113.556 70.8466 113.556 70.5398C113.556 70.2443 113.491 69.9872 113.36 69.7685C113.229 69.5497 113.045 69.3793 112.806 69.2571C112.57 69.1349 112.292 69.0739 111.971 69.0739C111.67 69.0739 111.386 69.1293 111.119 69.2401C110.854 69.348 110.638 69.5057 110.471 69.7131C110.303 69.9176 110.212 70.1648 110.198 70.4545H109.175C109.192 69.9972 109.33 69.5966 109.589 69.2528C109.847 68.9062 110.185 68.6364 110.603 68.4432C111.023 68.25 111.485 68.1534 111.988 68.1534C112.528 68.1534 112.991 68.2628 113.377 68.4815C113.763 68.6974 114.06 68.983 114.268 69.3381C114.475 69.6932 114.579 70.0767 114.579 70.4886C114.579 70.9801 114.45 71.3991 114.191 71.7457C113.935 72.0923 113.587 72.3324 113.147 72.4659V72.5341C113.698 72.625 114.129 72.8594 114.438 73.2372C114.748 73.6122 114.903 74.0767 114.903 74.6307C114.903 75.1051 114.773 75.5312 114.515 75.9091C114.259 76.2841 113.91 76.5795 113.467 76.7955C113.023 77.0114 112.519 77.1193 111.954 77.1193ZM119.492 77.1193C118.85 77.1193 118.303 76.9446 117.852 76.5952C117.4 76.2429 117.055 75.733 116.816 75.0653C116.577 74.3949 116.458 73.5852 116.458 72.6364C116.458 71.6932 116.577 70.8878 116.816 70.2202C117.058 69.5497 117.404 69.0384 117.856 68.6861C118.31 68.331 118.856 68.1534 119.492 68.1534C120.129 68.1534 120.673 68.331 121.124 68.6861C121.579 69.0384 121.925 69.5497 122.164 70.2202C122.406 70.8878 122.526 71.6932 122.526 72.6364C122.526 73.5852 122.407 74.3949 122.168 75.0653C121.93 75.733 121.585 76.2429 121.133 76.5952C120.681 76.9446 120.134 77.1193 119.492 77.1193ZM119.492 76.1818C120.129 76.1818 120.623 75.875 120.975 75.2614C121.327 74.6477 121.504 73.7727 121.504 72.6364C121.504 71.8807 121.423 71.2372 121.261 70.706C121.102 70.1747 120.871 69.7699 120.57 69.4915C120.272 69.2131 119.913 69.0739 119.492 69.0739C118.862 69.0739 118.369 69.3849 118.013 70.0071C117.658 70.6264 117.481 71.5028 117.481 72.6364C117.481 73.392 117.56 74.0341 117.719 74.5625C117.879 75.0909 118.107 75.4929 118.406 75.7685C118.707 76.044 119.069 76.1818 119.492 76.1818Z" fill="black"/>
<path d="M146.176 77L147.608 68.2727H148.46L147.028 77H146.176ZM142.205 74.5795L142.341 73.7273H148.852L148.716 74.5795H142.205ZM143.108 77L144.54 68.2727H145.392L143.96 77H143.108ZM142.716 71.5455L142.852 70.6932H149.364L149.227 71.5455H142.716ZM157.65 71H156.593C156.531 70.696 156.421 70.429 156.265 70.1989C156.112 69.9688 155.924 69.7756 155.702 69.6193C155.484 69.4602 155.241 69.3409 154.974 69.2614C154.707 69.1818 154.428 69.142 154.138 69.142C153.61 69.142 153.131 69.2756 152.702 69.5426C152.276 69.8097 151.937 70.2031 151.684 70.723C151.434 71.2429 151.309 71.8807 151.309 72.6364C151.309 73.392 151.434 74.0298 151.684 74.5497C151.937 75.0696 152.276 75.4631 152.702 75.7301C153.131 75.9972 153.61 76.1307 154.138 76.1307C154.428 76.1307 154.707 76.0909 154.974 76.0114C155.241 75.9318 155.484 75.8139 155.702 75.6577C155.924 75.4986 156.112 75.304 156.265 75.0739C156.421 74.8409 156.531 74.5739 156.593 74.2727H157.65C157.57 74.7187 157.425 75.1179 157.215 75.4702C157.005 75.8224 156.744 76.1222 156.431 76.3693C156.119 76.6136 155.768 76.7997 155.379 76.9276C154.992 77.0554 154.579 77.1193 154.138 77.1193C153.394 77.1193 152.732 76.9375 152.153 76.5739C151.573 76.2102 151.117 75.6932 150.785 75.0227C150.452 74.3523 150.286 73.5568 150.286 72.6364C150.286 71.7159 150.452 70.9205 150.785 70.25C151.117 69.5795 151.573 69.0625 152.153 68.6989C152.732 68.3352 153.394 68.1534 154.138 68.1534C154.579 68.1534 154.992 68.2173 155.379 68.3452C155.768 68.473 156.119 68.6605 156.431 68.9077C156.744 69.152 157.005 69.4503 157.215 69.8026C157.425 70.152 157.57 70.5511 157.65 71ZM159.358 77V68.2727H162.409C163.017 68.2727 163.518 68.3778 163.913 68.5881C164.308 68.7955 164.602 69.0753 164.795 69.4276C164.988 69.777 165.085 70.1648 165.085 70.5909C165.085 70.9659 165.018 71.2756 164.885 71.5199C164.754 71.7642 164.581 71.9574 164.365 72.0994C164.152 72.2415 163.92 72.3466 163.67 72.4148V72.5C163.937 72.517 164.206 72.6108 164.475 72.7812C164.745 72.9517 164.971 73.196 165.153 73.5142C165.335 73.8324 165.426 74.2216 165.426 74.6818C165.426 75.1193 165.326 75.5128 165.127 75.8622C164.929 76.2116 164.615 76.4886 164.186 76.6932C163.757 76.8977 163.199 77 162.511 77H159.358ZM160.414 76.0625H162.511C163.201 76.0625 163.691 75.929 163.981 75.6619C164.274 75.392 164.42 75.0653 164.42 74.6818C164.42 74.3864 164.345 74.1136 164.194 73.8636C164.044 73.6108 163.829 73.4091 163.551 73.2585C163.272 73.1051 162.943 73.0284 162.562 73.0284H160.414V76.0625ZM160.414 72.108H162.375C162.693 72.108 162.98 72.0455 163.235 71.9205C163.494 71.7955 163.699 71.6193 163.849 71.392C164.002 71.1648 164.079 70.8977 164.079 70.5909C164.079 70.2074 163.946 69.8821 163.679 69.6151C163.412 69.3452 162.988 69.2102 162.409 69.2102H160.414V72.108ZM169.804 77.1193C169.219 77.1193 168.702 77.0156 168.253 76.8082C167.807 76.598 167.459 76.3097 167.209 75.9432C166.959 75.5739 166.836 75.1534 166.838 74.6818C166.836 74.3125 166.908 73.9716 167.056 73.6591C167.203 73.3437 167.405 73.081 167.661 72.8707C167.919 72.6577 168.208 72.5227 168.526 72.4659V72.4148C168.108 72.3068 167.776 72.0724 167.529 71.7116C167.282 71.348 167.159 70.9347 167.162 70.4716C167.159 70.0284 167.272 69.6321 167.499 69.2827C167.726 68.9332 168.039 68.6577 168.436 68.456C168.837 68.2543 169.293 68.1534 169.804 68.1534C170.31 68.1534 170.762 68.2543 171.159 68.456C171.557 68.6577 171.87 68.9332 172.097 69.2827C172.327 69.6321 172.444 70.0284 172.446 70.4716C172.444 70.9347 172.317 71.348 172.067 71.7116C171.82 72.0724 171.492 72.3068 171.083 72.4148V72.4659C171.398 72.5227 171.682 72.6577 171.935 72.8707C172.188 73.081 172.39 73.3437 172.54 73.6591C172.691 73.9716 172.767 74.3125 172.77 74.6818C172.767 75.1534 172.64 75.5739 172.387 75.9432C172.137 76.3097 171.789 76.598 171.343 76.8082C170.9 77.0156 170.387 77.1193 169.804 77.1193ZM169.804 76.1818C170.199 76.1818 170.54 76.1179 170.827 75.9901C171.114 75.8622 171.336 75.6818 171.492 75.4489C171.648 75.2159 171.728 74.9432 171.73 74.6307C171.728 74.3011 171.642 74.0099 171.475 73.7571C171.307 73.5043 171.078 73.3054 170.789 73.1605C170.502 73.0156 170.174 72.9432 169.804 72.9432C169.432 72.9432 169.1 73.0156 168.807 73.1605C168.517 73.3054 168.289 73.5043 168.121 73.7571C167.956 74.0099 167.875 74.3011 167.878 74.6307C167.875 74.9432 167.951 75.2159 168.104 75.4489C168.26 75.6818 168.483 75.8622 168.773 75.9901C169.063 76.1179 169.407 76.1818 169.804 76.1818ZM169.804 72.0398C170.117 72.0398 170.394 71.9773 170.635 71.8523C170.88 71.7273 171.071 71.5526 171.211 71.3281C171.35 71.1037 171.421 70.8409 171.424 70.5398C171.421 70.2443 171.351 69.9872 171.215 69.7685C171.078 69.5469 170.89 69.3764 170.648 69.2571C170.407 69.1349 170.125 69.0739 169.804 69.0739C169.478 69.0739 169.192 69.1349 168.948 69.2571C168.703 69.3764 168.515 69.5469 168.381 69.7685C168.248 69.9872 168.182 70.2443 168.185 70.5398C168.182 70.8409 168.249 71.1037 168.385 71.3281C168.525 71.5526 168.716 71.7273 168.961 71.8523C169.205 71.9773 169.486 72.0398 169.804 72.0398ZM177.182 68.1534C177.54 68.1562 177.898 68.2244 178.256 68.358C178.614 68.4915 178.94 68.7131 179.236 69.0227C179.531 69.3295 179.768 69.7486 179.947 70.2798C180.126 70.8111 180.216 71.4773 180.216 72.2784C180.216 73.054 180.142 73.7429 179.994 74.3452C179.849 74.9446 179.639 75.4503 179.364 75.8622C179.091 76.2741 178.759 76.5866 178.366 76.7997C177.977 77.0128 177.537 77.1193 177.045 77.1193C176.557 77.1193 176.121 77.0227 175.737 76.8295C175.357 76.6335 175.044 76.3622 174.8 76.0156C174.558 75.6662 174.403 75.2614 174.335 74.8011H175.375C175.469 75.2017 175.655 75.5327 175.933 75.794C176.214 76.0526 176.585 76.1818 177.045 76.1818C177.719 76.1818 178.25 75.8878 178.639 75.2997C179.031 74.7116 179.227 73.8807 179.227 72.8068H179.159C179 73.0455 178.811 73.2514 178.592 73.4247C178.374 73.598 178.131 73.7315 177.864 73.8253C177.597 73.919 177.313 73.9659 177.011 73.9659C176.511 73.9659 176.053 73.8423 175.635 73.5952C175.22 73.3452 174.888 73.0028 174.638 72.5682C174.391 72.1307 174.267 71.6307 174.267 71.0682C174.267 70.5341 174.386 70.0455 174.625 69.6023C174.866 69.1562 175.205 68.8011 175.639 68.5369C176.077 68.2727 176.591 68.1449 177.182 68.1534ZM177.182 69.0909C176.824 69.0909 176.501 69.1804 176.214 69.3594C175.93 69.5355 175.705 69.7741 175.537 70.0753C175.372 70.3736 175.29 70.7045 175.29 71.0682C175.29 71.4318 175.369 71.7628 175.528 72.0611C175.69 72.3565 175.911 72.5923 176.189 72.7685C176.47 72.9418 176.79 73.0284 177.148 73.0284C177.418 73.0284 177.669 72.9759 177.902 72.8707C178.135 72.7628 178.338 72.6165 178.511 72.4318C178.688 72.2443 178.825 72.0327 178.925 71.7969C179.024 71.5582 179.074 71.3097 179.074 71.0511C179.074 70.7102 178.991 70.3906 178.827 70.0923C178.665 69.794 178.44 69.5526 178.153 69.3679C177.869 69.1832 177.545 69.0909 177.182 69.0909ZM182.045 77V68.2727H187.312V69.2102H183.102V72.1591H187.039V73.0966H183.102V76.0625H187.38V77H182.045ZM189.575 77H188.467L191.672 68.2727H192.762L195.967 77H194.859L192.251 69.6534H192.183L189.575 77ZM189.984 73.5909H194.45V74.5284H189.984V73.5909Z" fill="black"/>
<path d="M217.176 77L218.608 68.2727H219.46L218.028 77H217.176ZM213.205 74.5795L213.341 73.7273H219.852L219.716 74.5795H213.205ZM214.108 77L215.54 68.2727H216.392L214.96 77H214.108ZM213.716 71.5455L213.852 70.6932H220.364L220.227 71.5455H213.716ZM221.985 77H220.877L224.082 68.2727H225.173L228.377 77H227.269L224.661 69.6534H224.593L221.985 77ZM222.394 73.5909H226.86V74.5284H222.394V73.5909ZM232.43 77.1193C231.788 77.1193 231.241 76.9446 230.789 76.5952C230.337 76.2429 229.992 75.733 229.754 75.0653C229.515 74.3949 229.396 73.5852 229.396 72.6364C229.396 71.6932 229.515 70.8878 229.754 70.2202C229.995 69.5497 230.342 69.0384 230.793 68.6861C231.248 68.331 231.793 68.1534 232.43 68.1534C233.066 68.1534 233.61 68.331 234.062 68.6861C234.516 69.0384 234.863 69.5497 235.102 70.2202C235.343 70.8878 235.464 71.6932 235.464 72.6364C235.464 73.5852 235.344 74.3949 235.106 75.0653C234.867 75.733 234.522 76.2429 234.07 76.5952C233.619 76.9446 233.072 77.1193 232.43 77.1193ZM232.43 76.1818C233.066 76.1818 233.56 75.875 233.913 75.2614C234.265 74.6477 234.441 73.7727 234.441 72.6364C234.441 71.8807 234.36 71.2372 234.198 70.706C234.039 70.1747 233.809 69.7699 233.508 69.4915C233.21 69.2131 232.85 69.0739 232.43 69.0739C231.799 69.0739 231.306 69.3849 230.951 70.0071C230.596 70.6264 230.418 71.5028 230.418 72.6364C230.418 73.392 230.498 74.0341 230.657 74.5625C230.816 75.0909 231.045 75.4929 231.343 75.7685C231.644 76.044 232.006 76.1818 232.43 76.1818ZM239.93 77H237.237V68.2727H240.049C240.896 68.2727 241.62 68.4474 242.222 68.7969C242.825 69.1435 243.286 69.642 243.607 70.2926C243.928 70.9403 244.089 71.7159 244.089 72.6193C244.089 73.5284 243.927 74.3111 243.603 74.9673C243.279 75.6207 242.808 76.1236 242.188 76.4759C241.569 76.8253 240.816 77 239.93 77ZM238.293 76.0625H239.862C240.583 76.0625 241.181 75.9233 241.656 75.6449C242.13 75.3665 242.484 74.9702 242.717 74.456C242.95 73.9418 243.066 73.3295 243.066 72.6193C243.066 71.9148 242.951 71.3082 242.721 70.7997C242.491 70.2884 242.147 69.8963 241.69 69.6236C241.232 69.348 240.663 69.2102 239.981 69.2102H238.293V76.0625ZM245.862 77V68.2727H251.094V69.2102H246.918V72.1591H250.702V73.0966H246.918V77H245.862ZM252.904 77V68.2727H258.137V69.2102H253.961V72.1591H257.745V73.0966H253.961V77H252.904ZM259.216 77H258.108L261.312 68.2727H262.403L265.608 77H264.5L261.892 69.6534H261.824L259.216 77ZM259.625 73.5909H264.091V74.5284H259.625V73.5909Z" fill="black"/>
<path d="M288.176 77L289.608 68.2727H290.46L289.028 77H288.176ZM284.205 74.5795L284.341 73.7273H290.852L290.716 74.5795H284.205ZM285.108 77L286.54 68.2727H287.392L285.96 77H285.108ZM284.716 71.5455L284.852 70.6932H291.364L291.227 71.5455H284.716ZM292.627 77V68.2727H297.86V69.2102H293.684V72.1591H297.468V73.0966H293.684V77H292.627ZM302.295 68.1534C302.653 68.1562 303.011 68.2244 303.369 68.358C303.727 68.4915 304.054 68.7131 304.349 69.0227C304.645 69.3295 304.882 69.7486 305.061 70.2798C305.24 70.8111 305.329 71.4773 305.329 72.2784C305.329 73.054 305.255 73.7429 305.108 74.3452C304.963 74.9446 304.752 75.4503 304.477 75.8622C304.204 76.2741 303.872 76.5866 303.48 76.7997C303.091 77.0128 302.65 77.1193 302.159 77.1193C301.67 77.1193 301.234 77.0227 300.85 76.8295C300.47 76.6335 300.157 76.3622 299.913 76.0156C299.672 75.6662 299.517 75.2614 299.449 74.8011H300.488C300.582 75.2017 300.768 75.5327 301.047 75.794C301.328 76.0526 301.699 76.1818 302.159 76.1818C302.832 76.1818 303.363 75.8878 303.752 75.2997C304.145 74.7116 304.341 73.8807 304.341 72.8068H304.272C304.113 73.0455 303.924 73.2514 303.706 73.4247C303.487 73.598 303.244 73.7315 302.977 73.8253C302.71 73.919 302.426 73.9659 302.125 73.9659C301.625 73.9659 301.166 73.8423 300.748 73.5952C300.333 73.3452 300.001 73.0028 299.751 72.5682C299.504 72.1307 299.38 71.6307 299.38 71.0682C299.38 70.5341 299.5 70.0455 299.738 69.6023C299.98 69.1562 300.318 68.8011 300.752 68.5369C301.19 68.2727 301.704 68.1449 302.295 68.1534ZM302.295 69.0909C301.937 69.0909 301.615 69.1804 301.328 69.3594C301.044 69.5355 300.818 69.7741 300.65 70.0753C300.485 70.3736 300.403 70.7045 300.403 71.0682C300.403 71.4318 300.483 71.7628 300.642 72.0611C300.804 72.3565 301.024 72.5923 301.302 72.7685C301.583 72.9418 301.903 73.0284 302.261 73.0284C302.531 73.0284 302.782 72.9759 303.015 72.8707C303.248 72.7628 303.451 72.6165 303.625 72.4318C303.801 72.2443 303.939 72.0327 304.038 71.7969C304.137 71.5582 304.187 71.3097 304.187 71.0511C304.187 70.7102 304.105 70.3906 303.94 70.0923C303.778 69.794 303.554 69.5526 303.267 69.3679C302.983 69.1832 302.659 69.0909 302.295 69.0909ZM307.158 77V68.2727H312.391V69.2102H308.215V72.1591H311.999V73.0966H308.215V77H307.158ZM316.826 68.1534C317.184 68.1562 317.542 68.2244 317.9 68.358C318.258 68.4915 318.585 68.7131 318.88 69.0227C319.176 69.3295 319.413 69.7486 319.592 70.2798C319.771 70.8111 319.86 71.4773 319.86 72.2784C319.86 73.054 319.787 73.7429 319.639 74.3452C319.494 74.9446 319.284 75.4503 319.008 75.8622C318.735 76.2741 318.403 76.5866 318.011 76.7997C317.622 77.0128 317.181 77.1193 316.69 77.1193C316.201 77.1193 315.765 77.0227 315.382 76.8295C315.001 76.6335 314.689 76.3622 314.444 76.0156C314.203 75.6662 314.048 75.2614 313.98 74.8011H315.02C315.113 75.2017 315.299 75.5327 315.578 75.794C315.859 76.0526 316.23 76.1818 316.69 76.1818C317.363 76.1818 317.895 75.8878 318.284 75.2997C318.676 74.7116 318.872 73.8807 318.872 72.8068H318.804C318.645 73.0455 318.456 73.2514 318.237 73.4247C318.018 73.598 317.775 73.7315 317.508 73.8253C317.241 73.919 316.957 73.9659 316.656 73.9659C316.156 73.9659 315.697 73.8423 315.279 73.5952C314.865 73.3452 314.532 73.0028 314.282 72.5682C314.035 72.1307 313.912 71.6307 313.912 71.0682C313.912 70.5341 314.031 70.0455 314.27 69.6023C314.511 69.1562 314.849 68.8011 315.284 68.5369C315.721 68.2727 316.235 68.1449 316.826 68.1534ZM316.826 69.0909C316.468 69.0909 316.146 69.1804 315.859 69.3594C315.575 69.5355 315.349 69.7741 315.181 70.0753C315.017 70.3736 314.934 70.7045 314.934 71.0682C314.934 71.4318 315.014 71.7628 315.173 72.0611C315.335 72.3565 315.555 72.5923 315.833 72.7685C316.115 72.9418 316.434 73.0284 316.792 73.0284C317.062 73.0284 317.314 72.9759 317.547 72.8707C317.779 72.7628 317.983 72.6165 318.156 72.4318C318.332 72.2443 318.47 72.0327 318.569 71.7969C318.669 71.5582 318.718 71.3097 318.718 71.0511C318.718 70.7102 318.636 70.3906 318.471 70.0923C318.309 69.794 318.085 69.5526 317.798 69.3679C317.514 69.1832 317.19 69.0909 316.826 69.0909ZM321.69 77V68.2727H326.923V69.2102H322.746V72.1591H326.531V73.0966H322.746V77H321.69ZM331.358 68.1534C331.716 68.1562 332.074 68.2244 332.431 68.358C332.789 68.4915 333.116 68.7131 333.412 69.0227C333.707 69.3295 333.944 69.7486 334.123 70.2798C334.302 70.8111 334.392 71.4773 334.392 72.2784C334.392 73.054 334.318 73.7429 334.17 74.3452C334.025 74.9446 333.815 75.4503 333.539 75.8622C333.267 76.2741 332.934 76.5866 332.542 76.7997C332.153 77.0128 331.713 77.1193 331.221 77.1193C330.733 77.1193 330.297 77.0227 329.913 76.8295C329.532 76.6335 329.22 76.3622 328.975 76.0156C328.734 75.6662 328.579 75.2614 328.511 74.8011H329.551C329.645 75.2017 329.831 75.5327 330.109 75.794C330.39 76.0526 330.761 76.1818 331.221 76.1818C331.895 76.1818 332.426 75.8878 332.815 75.2997C333.207 74.7116 333.403 73.8807 333.403 72.8068H333.335C333.176 73.0455 332.987 73.2514 332.768 73.4247C332.549 73.598 332.306 73.7315 332.039 73.8253C331.772 73.919 331.488 73.9659 331.187 73.9659C330.687 73.9659 330.228 73.8423 329.811 73.5952C329.396 73.3452 329.064 73.0028 328.814 72.5682C328.566 72.1307 328.443 71.6307 328.443 71.0682C328.443 70.5341 328.562 70.0455 328.801 69.6023C329.042 69.1562 329.38 68.8011 329.815 68.5369C330.252 68.2727 330.767 68.1449 331.358 68.1534ZM331.358 69.0909C331 69.0909 330.677 69.1804 330.39 69.3594C330.106 69.5355 329.88 69.7741 329.713 70.0753C329.548 70.3736 329.466 70.7045 329.466 71.0682C329.466 71.4318 329.545 71.7628 329.704 72.0611C329.866 72.3565 330.086 72.5923 330.365 72.7685C330.646 72.9418 330.966 73.0284 331.324 73.0284C331.593 73.0284 331.845 72.9759 332.078 72.8707C332.311 72.7628 332.514 72.6165 332.687 72.4318C332.863 72.2443 333.001 72.0327 333.1 71.7969C333.2 71.5582 333.25 71.3097 333.25 71.0511C333.25 70.7102 333.167 70.3906 333.002 70.0923C332.841 69.794 332.616 69.5526 332.329 69.3679C332.045 69.1832 331.721 69.0909 331.358 69.0909Z" fill="black"/>
<path d="M354.176 77L355.608 68.2727H356.46L355.028 77H354.176ZM350.205 74.5795L350.341 73.7273H356.852L356.716 74.5795H350.205ZM351.108 77L352.54 68.2727H353.392L351.96 77H351.108ZM350.716 71.5455L350.852 70.6932H357.364L357.227 71.5455H350.716ZM361.252 68.1534C361.61 68.1562 361.968 68.2244 362.326 68.358C362.684 68.4915 363.011 68.7131 363.306 69.0227C363.602 69.3295 363.839 69.7486 364.018 70.2798C364.197 70.8111 364.286 71.4773 364.286 72.2784C364.286 73.054 364.212 73.7429 364.065 74.3452C363.92 74.9446 363.71 75.4503 363.434 75.8622C363.161 76.2741 362.829 76.5866 362.437 76.7997C362.048 77.0128 361.607 77.1193 361.116 77.1193C360.627 77.1193 360.191 77.0227 359.808 76.8295C359.427 76.6335 359.114 76.3622 358.87 76.0156C358.629 75.6662 358.474 75.2614 358.406 74.8011H359.445C359.539 75.2017 359.725 75.5327 360.004 75.794C360.285 76.0526 360.656 76.1818 361.116 76.1818C361.789 76.1818 362.32 75.8878 362.71 75.2997C363.102 74.7116 363.298 73.8807 363.298 72.8068H363.229C363.07 73.0455 362.881 73.2514 362.663 73.4247C362.444 73.598 362.201 73.7315 361.934 73.8253C361.667 73.919 361.383 73.9659 361.082 73.9659C360.582 73.9659 360.123 73.8423 359.705 73.5952C359.29 73.3452 358.958 73.0028 358.708 72.5682C358.461 72.1307 358.337 71.6307 358.337 71.0682C358.337 70.5341 358.457 70.0455 358.695 69.6023C358.937 69.1562 359.275 68.8011 359.71 68.5369C360.147 68.2727 360.661 68.1449 361.252 68.1534ZM361.252 69.0909C360.894 69.0909 360.572 69.1804 360.285 69.3594C360.001 69.5355 359.775 69.7741 359.607 70.0753C359.442 70.3736 359.36 70.7045 359.36 71.0682C359.36 71.4318 359.44 71.7628 359.599 72.0611C359.761 72.3565 359.981 72.5923 360.259 72.7685C360.54 72.9418 360.86 73.0284 361.218 73.0284C361.488 73.0284 361.739 72.9759 361.972 72.8707C362.205 72.7628 362.408 72.6165 362.582 72.4318C362.758 72.2443 362.896 72.0327 362.995 71.7969C363.094 71.5582 363.144 71.3097 363.144 71.0511C363.144 70.7102 363.062 70.3906 362.897 70.0923C362.735 69.794 362.511 69.5526 362.224 69.3679C361.94 69.1832 361.616 69.0909 361.252 69.0909ZM373.138 71H372.081C372.019 70.696 371.909 70.429 371.753 70.1989C371.6 69.9688 371.412 69.7756 371.191 69.6193C370.972 69.4602 370.729 69.3409 370.462 69.2614C370.195 69.1818 369.917 69.142 369.627 69.142C369.098 69.142 368.62 69.2756 368.191 69.5426C367.765 69.8097 367.425 70.2031 367.172 70.723C366.922 71.2429 366.797 71.8807 366.797 72.6364C366.797 73.392 366.922 74.0298 367.172 74.5497C367.425 75.0696 367.765 75.4631 368.191 75.7301C368.62 75.9972 369.098 76.1307 369.627 76.1307C369.917 76.1307 370.195 76.0909 370.462 76.0114C370.729 75.9318 370.972 75.8139 371.191 75.6577C371.412 75.4986 371.6 75.304 371.753 75.0739C371.909 74.8409 372.019 74.5739 372.081 74.2727H373.138C373.059 74.7187 372.914 75.1179 372.703 75.4702C372.493 75.8224 372.232 76.1222 371.919 76.3693C371.607 76.6136 371.256 76.7997 370.867 76.9276C370.48 77.0554 370.067 77.1193 369.627 77.1193C368.882 77.1193 368.221 76.9375 367.641 76.5739C367.061 76.2102 366.605 75.6932 366.273 75.0227C365.941 74.3523 365.775 73.5568 365.775 72.6364C365.775 71.7159 365.941 70.9205 366.273 70.25C366.605 69.5795 367.061 69.0625 367.641 68.6989C368.221 68.3352 368.882 68.1534 369.627 68.1534C370.067 68.1534 370.48 68.2173 370.867 68.3452C371.256 68.473 371.607 68.6605 371.919 68.9077C372.232 69.152 372.493 69.4503 372.703 69.8026C372.914 70.152 373.059 70.5511 373.138 71ZM377.471 68.1534C377.829 68.1562 378.187 68.2244 378.545 68.358C378.903 68.4915 379.229 68.7131 379.525 69.0227C379.82 69.3295 380.058 69.7486 380.237 70.2798C380.415 70.8111 380.505 71.4773 380.505 72.2784C380.505 73.054 380.431 73.7429 380.283 74.3452C380.138 74.9446 379.928 75.4503 379.653 75.8622C379.38 76.2741 379.048 76.5866 378.656 76.7997C378.266 77.0128 377.826 77.1193 377.335 77.1193C376.846 77.1193 376.41 77.0227 376.026 76.8295C375.646 76.6335 375.333 76.3622 375.089 76.0156C374.847 75.6662 374.692 75.2614 374.624 74.8011H375.664C375.758 75.2017 375.944 75.5327 376.222 75.794C376.504 76.0526 376.874 76.1818 377.335 76.1818C378.008 76.1818 378.539 75.8878 378.928 75.2997C379.32 74.7116 379.516 73.8807 379.516 72.8068H379.448C379.289 73.0455 379.1 73.2514 378.881 73.4247C378.663 73.598 378.42 73.7315 378.153 73.8253C377.886 73.919 377.602 73.9659 377.3 73.9659C376.8 73.9659 376.342 73.8423 375.924 73.5952C375.509 73.3452 375.177 73.0028 374.927 72.5682C374.68 72.1307 374.556 71.6307 374.556 71.0682C374.556 70.5341 374.675 70.0455 374.914 69.6023C375.156 69.1562 375.494 68.8011 375.928 68.5369C376.366 68.2727 376.88 68.1449 377.471 68.1534ZM377.471 69.0909C377.113 69.0909 376.79 69.1804 376.504 69.3594C376.219 69.5355 375.994 69.7741 375.826 70.0753C375.661 70.3736 375.579 70.7045 375.579 71.0682C375.579 71.4318 375.658 71.7628 375.817 72.0611C375.979 72.3565 376.2 72.5923 376.478 72.7685C376.759 72.9418 377.079 73.0284 377.437 73.0284C377.707 73.0284 377.958 72.9759 378.191 72.8707C378.424 72.7628 378.627 72.6165 378.8 72.4318C378.977 72.2443 379.114 72.0327 379.214 71.7969C379.313 71.5582 379.363 71.3097 379.363 71.0511C379.363 70.7102 379.281 70.3906 379.116 70.0923C378.954 69.794 378.729 69.5526 378.442 69.3679C378.158 69.1832 377.835 69.0909 377.471 69.0909ZM389.357 71H388.3C388.238 70.696 388.128 70.429 387.972 70.1989C387.819 69.9688 387.631 69.7756 387.409 69.6193C387.191 69.4602 386.948 69.3409 386.681 69.2614C386.414 69.1818 386.135 69.142 385.846 69.142C385.317 69.142 384.838 69.2756 384.409 69.5426C383.983 69.8097 383.644 70.2031 383.391 70.723C383.141 71.2429 383.016 71.8807 383.016 72.6364C383.016 73.392 383.141 74.0298 383.391 74.5497C383.644 75.0696 383.983 75.4631 384.409 75.7301C384.838 75.9972 385.317 76.1307 385.846 76.1307C386.135 76.1307 386.414 76.0909 386.681 76.0114C386.948 75.9318 387.191 75.8139 387.409 75.6577C387.631 75.4986 387.819 75.304 387.972 75.0739C388.128 74.8409 388.238 74.5739 388.3 74.2727H389.357C389.277 74.7187 389.132 75.1179 388.922 75.4702C388.712 75.8224 388.451 76.1222 388.138 76.3693C387.826 76.6136 387.475 76.7997 387.086 76.9276C386.699 77.0554 386.286 77.1193 385.846 77.1193C385.101 77.1193 384.439 76.9375 383.86 76.5739C383.28 76.2102 382.824 75.6932 382.492 75.0227C382.159 74.3523 381.993 73.5568 381.993 72.6364C381.993 71.7159 382.159 70.9205 382.492 70.25C382.824 69.5795 383.28 69.0625 383.86 68.6989C384.439 68.3352 385.101 68.1534 385.846 68.1534C386.286 68.1534 386.699 68.2173 387.086 68.3452C387.475 68.473 387.826 68.6605 388.138 68.9077C388.451 69.152 388.712 69.4503 388.922 69.8026C389.132 70.152 389.277 70.5511 389.357 71ZM393.69 68.1534C394.048 68.1562 394.406 68.2244 394.763 68.358C395.121 68.4915 395.448 68.7131 395.744 69.0227C396.039 69.3295 396.276 69.7486 396.455 70.2798C396.634 70.8111 396.724 71.4773 396.724 72.2784C396.724 73.054 396.65 73.7429 396.502 74.3452C396.357 74.9446 396.147 75.4503 395.871 75.8622C395.599 76.2741 395.266 76.5866 394.874 76.7997C394.485 77.0128 394.045 77.1193 393.553 77.1193C393.065 77.1193 392.629 77.0227 392.245 76.8295C391.864 76.6335 391.552 76.3622 391.308 76.0156C391.066 75.6662 390.911 75.2614 390.843 74.8011H391.883C391.977 75.2017 392.163 75.5327 392.441 75.794C392.722 76.0526 393.093 76.1818 393.553 76.1818C394.227 76.1818 394.758 75.8878 395.147 75.2997C395.539 74.7116 395.735 73.8807 395.735 72.8068H395.667C395.508 73.0455 395.319 73.2514 395.1 73.4247C394.881 73.598 394.638 73.7315 394.371 73.8253C394.104 73.919 393.82 73.9659 393.519 73.9659C393.019 73.9659 392.56 73.8423 392.143 73.5952C391.728 73.3452 391.396 73.0028 391.146 72.5682C390.898 72.1307 390.775 71.6307 390.775 71.0682C390.775 70.5341 390.894 70.0455 391.133 69.6023C391.374 69.1562 391.712 68.8011 392.147 68.5369C392.585 68.2727 393.099 68.1449 393.69 68.1534ZM393.69 69.0909C393.332 69.0909 393.009 69.1804 392.722 69.3594C392.438 69.5355 392.212 69.7741 392.045 70.0753C391.88 70.3736 391.798 70.7045 391.798 71.0682C391.798 71.4318 391.877 71.7628 392.036 72.0611C392.198 72.3565 392.418 72.5923 392.697 72.7685C392.978 72.9418 393.298 73.0284 393.656 73.0284C393.925 73.0284 394.177 72.9759 394.41 72.8707C394.643 72.7628 394.846 72.6165 395.019 72.4318C395.195 72.2443 395.333 72.0327 395.433 71.7969C395.532 71.5582 395.582 71.3097 395.582 71.0511C395.582 70.7102 395.499 70.3906 395.335 70.0923C395.173 69.794 394.948 69.5526 394.661 69.3679C394.377 69.1832 394.053 69.0909 393.69 69.0909ZM405.576 71H404.519C404.456 70.696 404.347 70.429 404.191 70.1989C404.037 69.9688 403.85 69.7756 403.628 69.6193C403.409 69.4602 403.167 69.3409 402.9 69.2614C402.632 69.1818 402.354 69.142 402.064 69.142C401.536 69.142 401.057 69.2756 400.628 69.5426C400.202 69.8097 399.863 70.2031 399.61 70.723C399.36 71.2429 399.235 71.8807 399.235 72.6364C399.235 73.392 399.36 74.0298 399.61 74.5497C399.863 75.0696 400.202 75.4631 400.628 75.7301C401.057 75.9972 401.536 76.1307 402.064 76.1307C402.354 76.1307 402.632 76.0909 402.9 76.0114C403.167 75.9318 403.409 75.8139 403.628 75.6577C403.85 75.4986 404.037 75.304 404.191 75.0739C404.347 74.8409 404.456 74.5739 404.519 74.2727H405.576C405.496 74.7187 405.351 75.1179 405.141 75.4702C404.931 75.8224 404.669 76.1222 404.357 76.3693C404.044 76.6136 403.694 76.7997 403.304 76.9276C402.918 77.0554 402.505 77.1193 402.064 77.1193C401.32 77.1193 400.658 76.9375 400.078 76.5739C399.499 76.2102 399.043 75.6932 398.711 75.0227C398.378 74.3523 398.212 73.5568 398.212 72.6364C398.212 71.7159 398.378 70.9205 398.711 70.25C399.043 69.5795 399.499 69.0625 400.078 68.6989C400.658 68.3352 401.32 68.1534 402.064 68.1534C402.505 68.1534 402.918 68.2173 403.304 68.3452C403.694 68.473 404.044 68.6605 404.357 68.9077C404.669 69.152 404.931 69.4503 405.141 69.8026C405.351 70.152 405.496 70.5511 405.576 71Z" fill="black"/>
<path d="M424.176 77L425.608 68.2727H426.46L425.028 77H424.176ZM420.205 74.5795L420.341 73.7273H426.852L426.716 74.5795H420.205ZM421.108 77L422.54 68.2727H423.392L421.96 77H421.108ZM420.716 71.5455L420.852 70.6932H427.364L427.227 71.5455H420.716ZM431.423 77.1193C430.86 77.1193 430.359 77.0227 429.918 76.8295C429.481 76.6364 429.133 76.3679 428.874 76.0241C428.619 75.6776 428.479 75.2756 428.457 74.8182H429.531C429.553 75.0994 429.65 75.3423 429.82 75.5469C429.991 75.7486 430.214 75.9048 430.489 76.0156C430.765 76.1264 431.07 76.1818 431.406 76.1818C431.781 76.1818 432.113 76.1165 432.403 75.9858C432.692 75.8551 432.92 75.6733 433.085 75.4403C433.249 75.2074 433.332 74.9375 433.332 74.6307C433.332 74.3097 433.252 74.027 433.093 73.7827C432.934 73.5355 432.701 73.3423 432.394 73.2031C432.087 73.0639 431.712 72.9943 431.269 72.9943H430.57V72.0568H431.269C431.616 72.0568 431.92 71.9943 432.181 71.8693C432.445 71.7443 432.651 71.5682 432.799 71.3409C432.95 71.1136 433.025 70.8466 433.025 70.5398C433.025 70.2443 432.96 69.9872 432.829 69.7685C432.698 69.5497 432.513 69.3793 432.275 69.2571C432.039 69.1349 431.761 69.0739 431.44 69.0739C431.138 69.0739 430.854 69.1293 430.587 69.2401C430.323 69.348 430.107 69.5057 429.94 69.7131C429.772 69.9176 429.681 70.1648 429.667 70.4545H428.644C428.661 69.9972 428.799 69.5966 429.058 69.2528C429.316 68.9062 429.654 68.6364 430.072 68.4432C430.492 68.25 430.954 68.1534 431.457 68.1534C431.996 68.1534 432.46 68.2628 432.846 68.4815C433.232 68.6974 433.529 68.983 433.737 69.3381C433.944 69.6932 434.048 70.0767 434.048 70.4886C434.048 70.9801 433.918 71.3991 433.66 71.7457C433.404 72.0923 433.056 72.3324 432.616 72.4659V72.5341C433.167 72.625 433.597 72.8594 433.907 73.2372C434.217 73.6122 434.371 74.0767 434.371 74.6307C434.371 75.1051 434.242 75.5312 433.984 75.9091C433.728 76.2841 433.379 76.5795 432.935 76.7955C432.492 77.0114 431.988 77.1193 431.423 77.1193ZM438.893 68.1534C439.251 68.1562 439.609 68.2244 439.967 68.358C440.325 68.4915 440.651 68.7131 440.947 69.0227C441.242 69.3295 441.479 69.7486 441.658 70.2798C441.837 70.8111 441.927 71.4773 441.927 72.2784C441.927 73.054 441.853 73.7429 441.705 74.3452C441.56 74.9446 441.35 75.4503 441.075 75.8622C440.802 76.2741 440.469 76.5866 440.077 76.7997C439.688 77.0128 439.248 77.1193 438.756 77.1193C438.268 77.1193 437.832 77.0227 437.448 76.8295C437.067 76.6335 436.755 76.3622 436.511 76.0156C436.269 75.6662 436.114 75.2614 436.046 74.8011H437.086C437.18 75.2017 437.366 75.5327 437.644 75.794C437.925 76.0526 438.296 76.1818 438.756 76.1818C439.43 76.1818 439.961 75.8878 440.35 75.2997C440.742 74.7116 440.938 73.8807 440.938 72.8068H440.87C440.711 73.0455 440.522 73.2514 440.303 73.4247C440.085 73.598 439.842 73.7315 439.575 73.8253C439.308 73.919 439.023 73.9659 438.722 73.9659C438.222 73.9659 437.763 73.8423 437.346 73.5952C436.931 73.3452 436.599 73.0028 436.349 72.5682C436.102 72.1307 435.978 71.6307 435.978 71.0682C435.978 70.5341 436.097 70.0455 436.336 69.6023C436.577 69.1562 436.915 68.8011 437.35 68.5369C437.788 68.2727 438.302 68.1449 438.893 68.1534ZM438.893 69.0909C438.535 69.0909 438.212 69.1804 437.925 69.3594C437.641 69.5355 437.415 69.7741 437.248 70.0753C437.083 70.3736 437.001 70.7045 437.001 71.0682C437.001 71.4318 437.08 71.7628 437.239 72.0611C437.401 72.3565 437.621 72.5923 437.9 72.7685C438.181 72.9418 438.501 73.0284 438.859 73.0284C439.129 73.0284 439.38 72.9759 439.613 72.8707C439.846 72.7628 440.049 72.6165 440.222 72.4318C440.398 72.2443 440.536 72.0327 440.636 71.7969C440.735 71.5582 440.785 71.3097 440.785 71.0511C440.785 70.7102 440.702 70.3906 440.538 70.0923C440.376 69.794 440.151 69.5526 439.864 69.3679C439.58 69.1832 439.256 69.0909 438.893 69.0909ZM446.551 77.1193C445.989 77.1193 445.488 77.0227 445.047 76.8295C444.61 76.6364 444.262 76.3679 444.003 76.0241C443.748 75.6776 443.608 75.2756 443.586 74.8182H444.659C444.682 75.0994 444.779 75.3423 444.949 75.5469C445.12 75.7486 445.343 75.9048 445.618 76.0156C445.894 76.1264 446.199 76.1818 446.534 76.1818C446.909 76.1818 447.242 76.1165 447.532 75.9858C447.821 75.8551 448.049 75.6733 448.213 75.4403C448.378 75.2074 448.461 74.9375 448.461 74.6307C448.461 74.3097 448.381 74.027 448.222 73.7827C448.063 73.5355 447.83 73.3423 447.523 73.2031C447.216 73.0639 446.841 72.9943 446.398 72.9943H445.699V72.0568H446.398C446.745 72.0568 447.049 71.9943 447.31 71.8693C447.574 71.7443 447.78 71.5682 447.928 71.3409C448.078 71.1136 448.154 70.8466 448.154 70.5398C448.154 70.2443 448.088 69.9872 447.958 69.7685C447.827 69.5497 447.642 69.3793 447.404 69.2571C447.168 69.1349 446.89 69.0739 446.569 69.0739C446.267 69.0739 445.983 69.1293 445.716 69.2401C445.452 69.348 445.236 69.5057 445.069 69.7131C444.901 69.9176 444.81 70.1648 444.796 70.4545H443.773C443.79 69.9972 443.928 69.5966 444.186 69.2528C444.445 68.9062 444.783 68.6364 445.201 68.4432C445.621 68.25 446.083 68.1534 446.586 68.1534C447.125 68.1534 447.588 68.2628 447.975 68.4815C448.361 68.6974 448.658 68.983 448.865 69.3381C449.073 69.6932 449.176 70.0767 449.176 70.4886C449.176 70.9801 449.047 71.3991 448.789 71.7457C448.533 72.0923 448.185 72.3324 447.745 72.4659V72.5341C448.296 72.625 448.726 72.8594 449.036 73.2372C449.346 73.6122 449.5 74.0767 449.5 74.6307C449.5 75.1051 449.371 75.5312 449.113 75.9091C448.857 76.2841 448.507 76.5795 448.064 76.7955C447.621 77.0114 447.117 77.1193 446.551 77.1193ZM454.022 68.1534C454.38 68.1562 454.738 68.2244 455.096 68.358C455.453 68.4915 455.78 68.7131 456.076 69.0227C456.371 69.3295 456.608 69.7486 456.787 70.2798C456.966 70.8111 457.056 71.4773 457.056 72.2784C457.056 73.054 456.982 73.7429 456.834 74.3452C456.689 74.9446 456.479 75.4503 456.203 75.8622C455.931 76.2741 455.598 76.5866 455.206 76.7997C454.817 77.0128 454.377 77.1193 453.885 77.1193C453.397 77.1193 452.961 77.0227 452.577 76.8295C452.196 76.6335 451.884 76.3622 451.64 76.0156C451.398 75.6662 451.243 75.2614 451.175 74.8011H452.215C452.309 75.2017 452.495 75.5327 452.773 75.794C453.054 76.0526 453.425 76.1818 453.885 76.1818C454.559 76.1818 455.09 75.8878 455.479 75.2997C455.871 74.7116 456.067 73.8807 456.067 72.8068H455.999C455.84 73.0455 455.651 73.2514 455.432 73.4247C455.213 73.598 454.971 73.7315 454.703 73.8253C454.436 73.919 454.152 73.9659 453.851 73.9659C453.351 73.9659 452.892 73.8423 452.475 73.5952C452.06 73.3452 451.728 73.0028 451.478 72.5682C451.23 72.1307 451.107 71.6307 451.107 71.0682C451.107 70.5341 451.226 70.0455 451.465 69.6023C451.706 69.1562 452.044 68.8011 452.479 68.5369C452.917 68.2727 453.431 68.1449 454.022 68.1534ZM454.022 69.0909C453.664 69.0909 453.341 69.1804 453.054 69.3594C452.77 69.5355 452.544 69.7741 452.377 70.0753C452.212 70.3736 452.13 70.7045 452.13 71.0682C452.13 71.4318 452.209 71.7628 452.368 72.0611C452.53 72.3565 452.75 72.5923 453.029 72.7685C453.31 72.9418 453.63 73.0284 453.988 73.0284C454.257 73.0284 454.509 72.9759 454.742 72.8707C454.975 72.7628 455.178 72.6165 455.351 72.4318C455.527 72.2443 455.665 72.0327 455.765 71.7969C455.864 71.5582 455.914 71.3097 455.914 71.0511C455.914 70.7102 455.831 70.3906 455.667 70.0923C455.505 69.794 455.28 69.5526 454.993 69.3679C454.709 69.1832 454.385 69.0909 454.022 69.0909ZM461.68 77.1193C461.118 77.1193 460.616 77.0227 460.176 76.8295C459.739 76.6364 459.391 76.3679 459.132 76.0241C458.876 75.6776 458.737 75.2756 458.714 74.8182H459.788C459.811 75.0994 459.908 75.3423 460.078 75.5469C460.249 75.7486 460.472 75.9048 460.747 76.0156C461.023 76.1264 461.328 76.1818 461.663 76.1818C462.038 76.1818 462.371 76.1165 462.661 75.9858C462.95 75.8551 463.178 75.6733 463.342 75.4403C463.507 75.2074 463.589 74.9375 463.589 74.6307C463.589 74.3097 463.51 74.027 463.351 73.7827C463.192 73.5355 462.959 73.3423 462.652 73.2031C462.345 73.0639 461.97 72.9943 461.527 72.9943H460.828V72.0568H461.527C461.874 72.0568 462.178 71.9943 462.439 71.8693C462.703 71.7443 462.909 71.5682 463.057 71.3409C463.207 71.1136 463.283 70.8466 463.283 70.5398C463.283 70.2443 463.217 69.9872 463.087 69.7685C462.956 69.5497 462.771 69.3793 462.533 69.2571C462.297 69.1349 462.018 69.0739 461.697 69.0739C461.396 69.0739 461.112 69.1293 460.845 69.2401C460.581 69.348 460.365 69.5057 460.197 69.7131C460.03 69.9176 459.939 70.1648 459.925 70.4545H458.902C458.919 69.9972 459.057 69.5966 459.315 69.2528C459.574 68.9062 459.912 68.6364 460.33 68.4432C460.75 68.25 461.212 68.1534 461.714 68.1534C462.254 68.1534 462.717 68.2628 463.104 68.4815C463.49 68.6974 463.787 68.983 463.994 69.3381C464.202 69.6932 464.305 70.0767 464.305 70.4886C464.305 70.9801 464.176 71.3991 463.918 71.7457C463.662 72.0923 463.314 72.3324 462.874 72.4659V72.5341C463.425 72.625 463.855 72.8594 464.165 73.2372C464.474 73.6122 464.629 74.0767 464.629 74.6307C464.629 75.1051 464.5 75.5312 464.241 75.9091C463.986 76.2841 463.636 76.5795 463.193 76.7955C462.75 77.0114 462.246 77.1193 461.68 77.1193ZM469.151 68.1534C469.509 68.1562 469.866 68.2244 470.224 68.358C470.582 68.4915 470.909 68.7131 471.205 69.0227C471.5 69.3295 471.737 69.7486 471.916 70.2798C472.095 70.8111 472.185 71.4773 472.185 72.2784C472.185 73.054 472.111 73.7429 471.963 74.3452C471.818 74.9446 471.608 75.4503 471.332 75.8622C471.06 76.2741 470.727 76.5866 470.335 76.7997C469.946 77.0128 469.506 77.1193 469.014 77.1193C468.526 77.1193 468.089 77.0227 467.706 76.8295C467.325 76.6335 467.013 76.3622 466.768 76.0156C466.527 75.6662 466.372 75.2614 466.304 74.8011H467.344C467.438 75.2017 467.624 75.5327 467.902 75.794C468.183 76.0526 468.554 76.1818 469.014 76.1818C469.688 76.1818 470.219 75.8878 470.608 75.2997C471 74.7116 471.196 73.8807 471.196 72.8068H471.128C470.969 73.0455 470.78 73.2514 470.561 73.4247C470.342 73.598 470.099 73.7315 469.832 73.8253C469.565 73.919 469.281 73.9659 468.98 73.9659C468.48 73.9659 468.021 73.8423 467.604 73.5952C467.189 73.3452 466.857 73.0028 466.607 72.5682C466.359 72.1307 466.236 71.6307 466.236 71.0682C466.236 70.5341 466.355 70.0455 466.594 69.6023C466.835 69.1562 467.173 68.8011 467.608 68.5369C468.045 68.2727 468.56 68.1449 469.151 68.1534ZM469.151 69.0909C468.793 69.0909 468.47 69.1804 468.183 69.3594C467.899 69.5355 467.673 69.7741 467.506 70.0753C467.341 70.3736 467.259 70.7045 467.259 71.0682C467.259 71.4318 467.338 71.7628 467.497 72.0611C467.659 72.3565 467.879 72.5923 468.158 72.7685C468.439 72.9418 468.759 73.0284 469.116 73.0284C469.386 73.0284 469.638 72.9759 469.871 72.8707C470.104 72.7628 470.307 72.6165 470.48 72.4318C470.656 72.2443 470.794 72.0327 470.893 71.7969C470.993 71.5582 471.043 71.3097 471.043 71.0511C471.043 70.7102 470.96 70.3906 470.795 70.0923C470.634 69.794 470.409 69.5526 470.122 69.3679C469.838 69.1832 469.514 69.0909 469.151 69.0909Z" fill="black"/>
</svg>
