<svg width="18" height="18" viewBox="0 0 18 18" fill="none" xmlns="http://www.w3.org/2000/svg">
<path fill-rule="evenodd" clip-rule="evenodd" d="M6.02975 0.343699C7.9834 -0.114566 10.0166 -0.114566 11.9703 0.343699C14.7916 1.00549 16.9945 3.20842 17.6563 6.02975C18.1146 7.9834 18.1146 10.0166 17.6563 11.9703C16.9945 14.7916 14.7916 16.9945 11.9703 17.6563C10.0166 18.1146 7.9834 18.1146 6.02975 17.6563C3.20842 16.9945 1.0055 14.7916 0.3437 11.9703C-0.114567 10.0166 -0.114567 7.9834 0.3437 6.02974C1.0055 3.20841 3.20842 1.00549 6.02975 0.343699ZM7.0129 7.63655C6.7886 7.41224 6.42492 7.41224 6.20062 7.63655C5.97631 7.86085 5.97631 8.22452 6.20062 8.44883L8.59383 10.842C8.70155 10.9498 8.84764 11.0103 8.99997 11.0103C9.15231 11.0103 9.2984 10.9498 9.40612 10.842L11.7993 8.44883C12.0236 8.22452 12.0236 7.86085 11.7993 7.63655C11.575 7.41224 11.2114 7.41224 10.987 7.63655L8.99997 9.62362L7.0129 7.63655Z" fill="#393939"/>
</svg>
